<svg xmlns="http://www.w3.org/2000/svg" xmlns:xlink="http://www.w3.org/1999/xlink" width="400" zoomAndPan="magnify" viewBox="0 0 300 74.999997" height="100" preserveAspectRatio="xMidYMid meet" version="1.0"><defs><g/></defs><g fill="#d9b7ab" fill-opacity="1"><g transform="translate(45.833333, 54.893177)"><g><path d="M 30.042969 -11.683594 C 29.992188 -11.886719 30.09375 -12.390625 29.992188 -12.695312 C 29.890625 -13 29.839844 -14.210938 29.234375 -14.820312 C 28.222656 -15.425781 27.5625 -17.042969 26.855469 -17.902344 C 25.792969 -19.269531 24.328125 -20.484375 22.707031 -21.242188 C 22.152344 -21.597656 21.695312 -21.597656 21.648438 -22.152344 C 22 -22.40625 23.113281 -24.125 23.113281 -26.097656 C 23.113281 -27.109375 22.304688 -27.511719 22 -28.472656 C 21.796875 -29.183594 20.734375 -29.335938 20.332031 -29.839844 C 19.675781 -30.597656 19.472656 -31.40625 18.714844 -32.167969 C 17.953125 -33.078125 16.890625 -33.230469 15.832031 -33.078125 C 12.1875 -32.621094 12.339844 -31.914062 10.164062 -29.382812 C 10.117188 -29.636719 9.964844 -33.078125 9.558594 -35.050781 C 9.457031 -35.65625 8.648438 -36.3125 8.191406 -36.71875 C 7.789062 -37.074219 7.230469 -37.222656 6.675781 -37.324219 C 6.574219 -37.476562 5.765625 -38.183594 5.613281 -38.234375 C 4.855469 -38.488281 4.550781 -39.246094 3.691406 -38.894531 C 3.339844 -38.640625 3.589844 -37.628906 3.539062 -37.273438 C 3.386719 -35.960938 3.1875 -34.59375 3.238281 -33.328125 C 3.238281 -32.976562 3.386719 -31.207031 3.136719 -30.902344 C 3.136719 -30.246094 2.933594 -29.484375 2.933594 -28.828125 C 2.628906 -26.90625 2.578125 -24.984375 2.425781 -23.113281 C 2.125 -19.117188 1.972656 -14.921875 2.125 -10.976562 C 2.125 -9.914062 1.921875 -9.152344 2.074219 -8.144531 C 2.175781 -7.03125 2.527344 -6.019531 2.628906 -4.957031 C 2.679688 -4.148438 2.933594 -3.289062 3.238281 -2.578125 C 3.4375 -1.921875 4.199219 -1.113281 4.199219 -0.457031 C 4.753906 0.253906 5.511719 1.265625 6.523438 1.113281 C 7.484375 0.304688 6.980469 0.355469 6.980469 -0.707031 C 6.980469 -1.0625 8.042969 -8.800781 8.09375 -9.203125 C 8.191406 -10.117188 8.191406 -10.875 8.394531 -11.683594 C 8.546875 -12.136719 8.445312 -12.59375 8.597656 -13.097656 C 8.699219 -13.605469 9.105469 -14.210938 9.003906 -14.769531 C 8.34375 -17.296875 9.40625 -19.824219 9.660156 -22.507812 C 9.964844 -23.769531 10.519531 -25.035156 10.925781 -26.351562 C 11.429688 -28.273438 12.898438 -30.953125 14.210938 -31.257812 C 15.78125 -32.316406 17.703125 -30.195312 17.09375 -28.523438 C 17.09375 -26.5 16.488281 -26.148438 15.578125 -24.730469 C 14.96875 -23.871094 14.3125 -23.519531 13.554688 -22.859375 C 13.148438 -22.859375 12.441406 -22.050781 12.039062 -21.796875 C 11.378906 -21.496094 9.863281 -20.886719 10.265625 -20.027344 C 10.46875 -19.269531 11.582031 -18.15625 12.238281 -17.753906 C 13.097656 -17.144531 15.019531 -16.992188 16.03125 -17.296875 C 16.640625 -17.5 20.535156 -19.824219 20.382812 -20.433594 C 20.433594 -20.433594 21.445312 -20.28125 21.597656 -20.027344 C 22.707031 -19.269531 23.972656 -18.105469 24.578125 -16.992188 C 25.339844 -15.730469 25.492188 -13.808594 25.238281 -12.390625 C 24.53125 -8.597656 20.988281 -6.574219 20.734375 -6.371094 C 19.824219 -5.714844 17.804688 -4.5 15.070312 -4.5 C 14.414062 -4.5 13.453125 -5.007812 12.949219 -5.308594 C 12.59375 -5.96875 9.304688 -7.6875 10.773438 -5.714844 C 10.773438 -4.90625 14.058594 -2.933594 14.71875 -2.378906 C 15.78125 -1.417969 17.804688 -0.808594 18.914062 -0.707031 C 19.925781 -0.605469 20.6875 -0.960938 21.648438 -1.113281 C 22 -1.164062 25.640625 -3.339844 25.996094 -3.742188 C 26.402344 -4.199219 26.855469 -4.601562 27.363281 -5.007812 C 27.664062 -5.308594 27.96875 -5.5625 28.375 -5.816406 C 28.929688 -6.121094 28.878906 -6.371094 29.789062 -8.953125 C 30.195312 -9.863281 29.6875 -10.925781 30.042969 -11.683594 Z M 30.042969 -11.683594 "/></g></g></g><g fill="#d9b7ab" fill-opacity="1"><g transform="translate(78.397037, 54.893177)"><g><path d="M 30.296875 -15.425781 C 29.992188 -15.628906 29.789062 -15.375 29.738281 -15.222656 C 29.433594 -14.515625 29.03125 -13.503906 28.777344 -13 L 27.917969 -11.429688 C 27.363281 -10.773438 26.703125 -9.914062 26.25 -9.609375 C 25.339844 -8.953125 25.085938 -8.953125 23.570312 -8.496094 L 22.101562 -8.496094 C 21.394531 -8.546875 21.191406 -8.75 21.140625 -9.40625 C 21.140625 -9.8125 21.191406 -10.417969 21.292969 -10.722656 C 21.695312 -11.835938 21.898438 -13 22.050781 -14.160156 C 22.203125 -15.324219 22.355469 -16.488281 22.40625 -17.703125 C 22.507812 -19.167969 22.40625 -20.585938 22.40625 -22.050781 C 22.40625 -22.304688 22.355469 -22.558594 22.203125 -22.808594 C 21.949219 -23.316406 21.796875 -23.871094 21.847656 -24.578125 C 21.898438 -25.238281 21.746094 -25.84375 21.445312 -26.453125 C 21.292969 -26.804688 21.191406 -27.058594 21.140625 -27.414062 C 21.089844 -27.917969 20.9375 -28.375 20.6875 -28.726562 C 20.027344 -29.535156 19.574219 -30.496094 18.8125 -31.105469 C 18.5625 -31.308594 18.410156 -31.558594 18.257812 -31.8125 C 17.804688 -32.519531 17.652344 -32.570312 16.335938 -31.964844 C 15.882812 -31.660156 15.425781 -31.964844 14.667969 -32.269531 C 14.210938 -32.46875 15.476562 -34.238281 14.515625 -35.050781 C 13.859375 -35.605469 13 -35.808594 12.289062 -36.011719 C 11.988281 -36.113281 11.835938 -36.210938 11.582031 -36.0625 L 11.632812 -36.113281 C 11.277344 -35.859375 10.875 -35.859375 10.417969 -35.960938 C 9.558594 -36.160156 8.851562 -35.554688 7.941406 -35.351562 C 7.890625 -35.351562 7.839844 -35.300781 7.789062 -35.25 C 6.726562 -34.238281 6.121094 -33.328125 5.867188 -32.367188 C 5.816406 -32.117188 5.714844 -31.964844 5.613281 -31.761719 C 5.210938 -31.207031 5.007812 -30.546875 4.652344 -29.941406 C 4.097656 -28.828125 3.792969 -27.613281 3.386719 -26.402344 C 2.984375 -25.339844 2.628906 -24.328125 2.476562 -23.214844 C 2.378906 -22.65625 2.378906 -22.101562 2.277344 -21.445312 C 1.871094 -19.320312 2.023438 -17.09375 2.277344 -14.96875 C 2.578125 -12.289062 3.238281 -9.8125 4.25 -7.433594 C 4.5 -6.777344 6.574219 -2.730469 7.585938 -1.871094 C 8.953125 -0.757812 10.066406 -0.152344 11.277344 0.0507812 C 12.1875 0.253906 13.046875 0.0507812 14.007812 0 C 14.667969 0 15.222656 -0.0507812 15.78125 -0.304688 C 17.296875 -1.214844 18.359375 -2.328125 18.914062 -3.691406 C 19.320312 -4.5 19.976562 -5.613281 20.28125 -6.523438 C 20.484375 -7.03125 20.835938 -7.230469 21.394531 -7.183594 C 21.847656 -7.183594 22.304688 -7.230469 22.757812 -7.28125 C 23.71875 -7.433594 24.578125 -7.332031 25.492188 -7.789062 C 26.5 -8.445312 27.261719 -9.105469 28.070312 -10.015625 C 28.625 -10.621094 29.183594 -10.925781 30.648438 -14.769531 C 30.800781 -15.171875 30.445312 -15.324219 30.296875 -15.425781 Z M 7.789062 -35.351562 L 7.941406 -35.351562 Z M 19.675781 -11.027344 C 19.421875 -10.015625 18.863281 -9.054688 18.15625 -9.8125 C 17.449219 -10.46875 16.386719 -11.175781 15.628906 -11.835938 C 14.667969 -12.644531 13.808594 -14.109375 13.046875 -15.171875 C 12.796875 -15.527344 12.796875 -16.03125 12.644531 -16.335938 C 12.441406 -16.941406 12.136719 -17.5 11.988281 -18.105469 C 11.125 -20.636719 10.875 -23.417969 11.328125 -26.351562 C 11.429688 -27.261719 11.9375 -28.019531 12.441406 -28.726562 C 13.503906 -30.195312 15.019531 -30.347656 16.488281 -30.546875 C 16.992188 -30.648438 17.5 -30.445312 17.851562 -29.992188 C 17.953125 -29.839844 18.054688 -29.738281 18.15625 -29.535156 L 18.105469 -29.535156 C 18.964844 -27.867188 19.875 -26.199219 20.179688 -24.226562 C 20.433594 -22.304688 20.734375 -20.28125 20.6875 -18.15625 C 20.785156 -15.832031 20.28125 -13.402344 19.675781 -11.027344 Z M 18.359375 -7.132812 C 17.550781 -5.460938 16.742188 -3.792969 15.222656 -2.527344 C 13.503906 -1.214844 12.136719 -1.515625 10.773438 -3.488281 C 10.117188 -4.449219 9.761719 -5.613281 9.457031 -6.726562 C 9.253906 -7.433594 9.003906 -8.144531 8.902344 -8.902344 C 8.800781 -10.015625 8.851562 -11.027344 8.648438 -11.988281 C 8.496094 -12.59375 8.699219 -13.300781 8.75 -13.808594 C 8.75 -14.515625 8.800781 -15.273438 8.648438 -15.929688 C 8.597656 -16.386719 8.648438 -16.742188 8.75 -17.042969 C 8.851562 -17.246094 8.953125 -19.726562 9.457031 -20.027344 C 10.164062 -20.433594 9.761719 -19.117188 10.214844 -18.105469 C 10.671875 -17.09375 10.925781 -17.144531 11.480469 -15.730469 C 12.390625 -13.453125 13.65625 -11.683594 15.324219 -10.367188 L 16.183594 -9.609375 C 16.691406 -9.105469 17.195312 -8.597656 17.804688 -8.34375 C 18.308594 -8.042969 18.511719 -7.585938 18.359375 -7.132812 Z M 18.359375 -7.132812 "/></g></g></g><g fill="#d9b7ab" fill-opacity="1"><g transform="translate(106.81444, 54.893177)"><g><path d="M 30.296875 -15.425781 C 29.992188 -15.628906 29.789062 -15.375 29.738281 -15.222656 C 29.433594 -14.515625 29.03125 -13.503906 28.777344 -13 L 27.917969 -11.429688 C 27.363281 -10.773438 26.703125 -9.914062 26.25 -9.609375 C 25.339844 -8.953125 25.085938 -8.953125 23.570312 -8.496094 L 22.101562 -8.496094 C 21.394531 -8.546875 21.191406 -8.75 21.140625 -9.40625 C 21.140625 -9.8125 21.191406 -10.417969 21.292969 -10.722656 C 21.695312 -11.835938 21.898438 -13 22.050781 -14.160156 C 22.203125 -15.324219 22.355469 -16.488281 22.40625 -17.703125 C 22.507812 -19.167969 22.40625 -20.585938 22.40625 -22.050781 C 22.40625 -22.304688 22.355469 -22.558594 22.203125 -22.808594 C 21.949219 -23.316406 21.796875 -23.871094 21.847656 -24.578125 C 21.898438 -25.238281 21.746094 -25.84375 21.445312 -26.453125 C 21.292969 -26.804688 21.191406 -27.058594 21.140625 -27.414062 C 21.089844 -27.917969 20.9375 -28.375 20.6875 -28.726562 C 20.027344 -29.535156 19.574219 -30.496094 18.8125 -31.105469 C 18.5625 -31.308594 18.410156 -31.558594 18.257812 -31.8125 C 17.804688 -32.519531 17.652344 -32.570312 16.335938 -31.964844 C 15.882812 -31.660156 15.425781 -31.964844 14.667969 -32.269531 C 14.210938 -32.46875 15.476562 -34.238281 14.515625 -35.050781 C 13.859375 -35.605469 13 -35.808594 12.289062 -36.011719 C 11.988281 -36.113281 11.835938 -36.210938 11.582031 -36.0625 L 11.632812 -36.113281 C 11.277344 -35.859375 10.875 -35.859375 10.417969 -35.960938 C 9.558594 -36.160156 8.851562 -35.554688 7.941406 -35.351562 C 7.890625 -35.351562 7.839844 -35.300781 7.789062 -35.25 C 6.726562 -34.238281 6.121094 -33.328125 5.867188 -32.367188 C 5.816406 -32.117188 5.714844 -31.964844 5.613281 -31.761719 C 5.210938 -31.207031 5.007812 -30.546875 4.652344 -29.941406 C 4.097656 -28.828125 3.792969 -27.613281 3.386719 -26.402344 C 2.984375 -25.339844 2.628906 -24.328125 2.476562 -23.214844 C 2.378906 -22.65625 2.378906 -22.101562 2.277344 -21.445312 C 1.871094 -19.320312 2.023438 -17.09375 2.277344 -14.96875 C 2.578125 -12.289062 3.238281 -9.8125 4.25 -7.433594 C 4.5 -6.777344 6.574219 -2.730469 7.585938 -1.871094 C 8.953125 -0.757812 10.066406 -0.152344 11.277344 0.0507812 C 12.1875 0.253906 13.046875 0.0507812 14.007812 0 C 14.667969 0 15.222656 -0.0507812 15.78125 -0.304688 C 17.296875 -1.214844 18.359375 -2.328125 18.914062 -3.691406 C 19.320312 -4.5 19.976562 -5.613281 20.28125 -6.523438 C 20.484375 -7.03125 20.835938 -7.230469 21.394531 -7.183594 C 21.847656 -7.183594 22.304688 -7.230469 22.757812 -7.28125 C 23.71875 -7.433594 24.578125 -7.332031 25.492188 -7.789062 C 26.5 -8.445312 27.261719 -9.105469 28.070312 -10.015625 C 28.625 -10.621094 29.183594 -10.925781 30.648438 -14.769531 C 30.800781 -15.171875 30.445312 -15.324219 30.296875 -15.425781 Z M 7.789062 -35.351562 L 7.941406 -35.351562 Z M 19.675781 -11.027344 C 19.421875 -10.015625 18.863281 -9.054688 18.15625 -9.8125 C 17.449219 -10.46875 16.386719 -11.175781 15.628906 -11.835938 C 14.667969 -12.644531 13.808594 -14.109375 13.046875 -15.171875 C 12.796875 -15.527344 12.796875 -16.03125 12.644531 -16.335938 C 12.441406 -16.941406 12.136719 -17.5 11.988281 -18.105469 C 11.125 -20.636719 10.875 -23.417969 11.328125 -26.351562 C 11.429688 -27.261719 11.9375 -28.019531 12.441406 -28.726562 C 13.503906 -30.195312 15.019531 -30.347656 16.488281 -30.546875 C 16.992188 -30.648438 17.5 -30.445312 17.851562 -29.992188 C 17.953125 -29.839844 18.054688 -29.738281 18.15625 -29.535156 L 18.105469 -29.535156 C 18.964844 -27.867188 19.875 -26.199219 20.179688 -24.226562 C 20.433594 -22.304688 20.734375 -20.28125 20.6875 -18.15625 C 20.785156 -15.832031 20.28125 -13.402344 19.675781 -11.027344 Z M 18.359375 -7.132812 C 17.550781 -5.460938 16.742188 -3.792969 15.222656 -2.527344 C 13.503906 -1.214844 12.136719 -1.515625 10.773438 -3.488281 C 10.117188 -4.449219 9.761719 -5.613281 9.457031 -6.726562 C 9.253906 -7.433594 9.003906 -8.144531 8.902344 -8.902344 C 8.800781 -10.015625 8.851562 -11.027344 8.648438 -11.988281 C 8.496094 -12.59375 8.699219 -13.300781 8.75 -13.808594 C 8.75 -14.515625 8.800781 -15.273438 8.648438 -15.929688 C 8.597656 -16.386719 8.648438 -16.742188 8.75 -17.042969 C 8.851562 -17.246094 8.953125 -19.726562 9.457031 -20.027344 C 10.164062 -20.433594 9.761719 -19.117188 10.214844 -18.105469 C 10.671875 -17.09375 10.925781 -17.144531 11.480469 -15.730469 C 12.390625 -13.453125 13.65625 -11.683594 15.324219 -10.367188 L 16.183594 -9.609375 C 16.691406 -9.105469 17.195312 -8.597656 17.804688 -8.34375 C 18.308594 -8.042969 18.511719 -7.585938 18.359375 -7.132812 Z M 18.359375 -7.132812 "/></g></g></g><g fill="#d9b7ab" fill-opacity="1"><g transform="translate(135.231843, 54.893177)"><g><path d="M 32.167969 -15.527344 C 32.066406 -15.019531 31.761719 -13.960938 31.40625 -13.554688 C 30.75 -12.542969 29.535156 -9.457031 29.382812 -9.105469 C 28.273438 -6.878906 26.5 -5.5625 24.53125 -4.097656 C 23.871094 -3.539062 23.0625 -3.792969 22.808594 -4.652344 C 22.507812 -5.613281 22.507812 -6.675781 22.757812 -7.382812 C 23.011719 -8.09375 23.0625 -8.445312 23.0625 -8.953125 C 23.0625 -8.75 23.113281 -9.457031 23.113281 -11.027344 C 23.113281 -11.835938 23.164062 -12.695312 22.859375 -13.402344 C 22.40625 -14.566406 22.203125 -15.730469 21.34375 -16.792969 C 20.734375 -17.601562 20.078125 -18.308594 19.371094 -18.964844 C 19.066406 -19.269531 18.613281 -19.523438 18.15625 -19.523438 C 17.5 -19.574219 17.042969 -19.574219 16.488281 -19.574219 C 15.929688 -19.574219 16.4375 -20.433594 16.640625 -20.535156 C 17.703125 -21.191406 17.953125 -22.355469 18.914062 -23.214844 C 20.433594 -24.730469 21.796875 -26.148438 22.707031 -27.867188 C 23.265625 -28.828125 23.871094 -29.738281 23.972656 -30.851562 C 24.023438 -31.207031 23.972656 -32.21875 23.972656 -32.621094 C 24.023438 -33.179688 23.820312 -33.9375 23.367188 -34.746094 C 23.0625 -35.050781 22.910156 -35.453125 22.609375 -35.65625 C 21.546875 -36.261719 20.535156 -36.820312 19.269531 -36.769531 C 18.613281 -36.769531 18.105469 -36.464844 17.804688 -35.960938 C 17.703125 -35.859375 17.601562 -35.707031 17.703125 -35.503906 C 17.804688 -35.402344 17.953125 -35.453125 18.054688 -35.453125 C 18.359375 -35.554688 18.613281 -35.554688 18.914062 -35.453125 C 19.371094 -35.25 19.875 -35.050781 20.382812 -34.796875 C 21.039062 -34.390625 21.394531 -33.785156 21.34375 -32.925781 C 21.292969 -32.269531 21.191406 -31.558594 20.886719 -30.902344 C 20.535156 -30.042969 20.078125 -29.285156 19.625 -28.472656 C 19.117188 -27.511719 18.308594 -26.753906 17.703125 -25.84375 C 16.4375 -24.175781 14.921875 -22.757812 13.351562 -21.445312 C 12.746094 -20.988281 12.039062 -20.585938 11.429688 -20.128906 C 11.378906 -20.28125 11.378906 -20.484375 11.328125 -20.6875 C 11.277344 -21.445312 11.328125 -22.253906 11.328125 -23.113281 C 11.429688 -25.84375 11.175781 -28.675781 10.976562 -31.457031 C 10.925781 -32.976562 10.570312 -34.441406 9.457031 -35.65625 C 8.292969 -36.972656 6.675781 -37.273438 5.007812 -36.414062 C 4.601562 -36.261719 4.25 -35.960938 3.996094 -35.554688 L 3.894531 -35.402344 C 3.84375 -35.25 3.894531 -35.050781 3.996094 -34.898438 C 4.449219 -34.441406 4.449219 -33.835938 4.449219 -33.230469 L 4.300781 -32.367188 C 4.097656 -32.015625 3.84375 -29.535156 3.84375 -29.335938 C 3.894531 -28.171875 3.691406 -27.007812 3.488281 -25.894531 C 3.1875 -24.023438 3.035156 -22.152344 2.78125 -20.28125 C 2.628906 -18.964844 2.425781 -17.601562 2.328125 -16.285156 C 2.277344 -14.363281 1.972656 -12.390625 2.074219 -10.46875 C 2.125 -8.851562 2.328125 -7.230469 2.425781 -5.613281 C 2.476562 -4.550781 2.882812 -3.589844 2.984375 -2.527344 C 2.984375 -1.921875 3.4375 -1.417969 3.996094 -1.0625 C 4.957031 -0.40625 6.171875 -0.152344 7.332031 -0.0507812 C 8.292969 0.0507812 8.902344 -0.355469 8.953125 -1.464844 L 9.105469 -3.792969 C 9.203125 -5.410156 9.253906 -7.082031 9.40625 -8.75 C 9.558594 -10.066406 9.8125 -11.328125 10.066406 -12.644531 C 10.164062 -12.949219 10.214844 -13.300781 10.214844 -13.65625 C 10.367188 -13.910156 10.417969 -14.414062 10.46875 -14.667969 C 10.722656 -15.929688 11.027344 -16.4375 11.988281 -17.144531 C 12.238281 -17.347656 12.796875 -17.144531 13.046875 -16.84375 L 13.65625 -16.03125 C 13.859375 -15.78125 13.808594 -15.628906 13.859375 -15.375 C 13.960938 -14.464844 14.109375 -14.3125 14.109375 -13.554688 L 14.109375 -13.402344 C 14.414062 -11.886719 14.414062 -11.734375 14.71875 -11.125 C 15.019531 -10.066406 15.578125 -9.203125 15.929688 -8.34375 C 15.929688 -8.292969 16.183594 -7.839844 16.234375 -7.585938 C 17.09375 -6.320312 17.550781 -5.511719 19.371094 -3.792969 C 20.332031 -2.984375 21.898438 -2.277344 23.164062 -2.023438 C 23.71875 -1.921875 24.226562 -1.972656 24.78125 -2.277344 C 25.539062 -2.730469 26.199219 -3.1875 26.855469 -3.792969 C 27.3125 -4.300781 27.816406 -5.109375 28.375 -5.5625 C 29.738281 -6.625 30.195312 -8.242188 31.054688 -9.761719 C 31.355469 -10.316406 31.507812 -10.925781 31.863281 -11.53125 C 32.46875 -12.441406 32.925781 -13.554688 33.179688 -14.617188 C 33.277344 -15.171875 32.21875 -15.730469 32.167969 -15.527344 Z M 32.167969 -15.527344 "/></g></g></g><g fill="#d9b7ab" fill-opacity="1"><g transform="translate(166.126918, 54.893177)"><g><path d="M 32.167969 -16.082031 C 31.964844 -16.132812 31.8125 -16.285156 31.660156 -16.082031 C 31.308594 -15.476562 31.207031 -15.476562 31.054688 -14.921875 C 31.105469 -14.617188 29.789062 -11.886719 29.636719 -11.582031 C 29.234375 -10.824219 29.183594 -10.367188 28.675781 -9.8125 C 27.5625 -8.546875 26.097656 -4.957031 24.832031 -4.046875 C 23.871094 -3.1875 22.757812 -2.378906 21.394531 -2.78125 C 20.988281 -2.882812 20.6875 -3.035156 20.535156 -3.386719 C 20.230469 -4.25 19.726562 -4.957031 19.523438 -5.917969 C 19.117188 -6.878906 18.054688 -8.496094 18.105469 -9.054688 C 18.15625 -9.660156 18.257812 -10.117188 18.410156 -10.417969 C 18.863281 -11.785156 19.117188 -13 19.320312 -14.261719 C 19.523438 -15.375 20.027344 -16.691406 19.925781 -17.753906 C 19.875 -18.054688 19.976562 -18.308594 19.976562 -18.613281 C 20.128906 -20.6875 20.785156 -22.707031 20.484375 -24.78125 C 20.484375 -25.339844 20.6875 -25.792969 21.242188 -26.097656 L 22.707031 -27.160156 C 23.820312 -27.96875 24.679688 -28.980469 25.640625 -29.941406 C 26.90625 -31.457031 27.613281 -33.179688 27.714844 -35.101562 C 27.867188 -36.617188 26.652344 -38.234375 25.289062 -38.285156 C 23.71875 -38.335938 22.101562 -38.234375 20.636719 -37.375 C 19.066406 -36.414062 19.117188 -36.160156 17.753906 -34.847656 C 16.691406 -33.9375 15.273438 -31.914062 14.820312 -30.546875 C 14.617188 -30.347656 14.515625 -29.992188 14.464844 -29.738281 L 14.261719 -29.132812 C 14.210938 -29.082031 13.65625 -27.511719 13.554688 -27.109375 C 13.402344 -26.804688 13.148438 -26.855469 12.847656 -27.058594 C 12.847656 -27.058594 11.582031 -28.574219 11.328125 -29.03125 L 10.976562 -29.839844 C 10.722656 -30.851562 10.570312 -31.8125 10.570312 -32.925781 C 10.519531 -33.582031 10.671875 -36.972656 10.824219 -37.121094 C 11.277344 -37.730469 11.886719 -38.132812 12.59375 -38.335938 C 12.898438 -38.4375 13.199219 -38.335938 13.503906 -38.234375 C 13.757812 -38.132812 13.960938 -38.132812 14.210938 -38.132812 C 14.464844 -38.183594 14.566406 -38.285156 14.566406 -38.539062 C 14.515625 -39.398438 13.605469 -40.257812 12.695312 -40.105469 C 12.339844 -39.957031 12.039062 -40.054688 11.632812 -40.054688 C 11.480469 -39.90625 11.328125 -39.957031 11.277344 -39.90625 C 10.570312 -39.347656 9.964844 -38.84375 9.761719 -38.082031 C 9.507812 -37.222656 9.507812 -36.71875 9.355469 -36.0625 C 9.355469 -35.707031 9.304688 -35.402344 9.253906 -35.101562 C 9.304688 -34.847656 9.304688 -34.796875 9.304688 -34.796875 L 9.304688 -34.289062 C 9.253906 -33.027344 9.152344 -31.710938 9.304688 -30.445312 C 9.507812 -29.285156 9.8125 -28.171875 10.722656 -27.210938 C 10.722656 -27.109375 10.824219 -26.957031 10.925781 -26.753906 C 10.976562 -26.5 11.125 -26.25 11.378906 -26.097656 C 11.53125 -25.84375 11.785156 -25.339844 12.644531 -24.882812 C 13.453125 -24.125 11.9375 -22.355469 11.429688 -18.5625 L 11.078125 -15.375 C 10.875 -14.769531 10.316406 -12.039062 10.117188 -11.277344 C 10.066406 -10.875 9.105469 -11.226562 8.394531 -11.125 C 7.789062 -11.027344 7.183594 -10.824219 6.574219 -10.570312 C 6.070312 -10.367188 5.511719 -10.164062 4.957031 -10.015625 C 4.449219 -9.914062 3.996094 -9.609375 3.640625 -9.203125 L 3.488281 -9.054688 C 3.238281 -8.800781 2.984375 -8.546875 2.832031 -8.191406 C 2.476562 -7.636719 2.277344 -6.878906 2.125 -6.171875 C 1.921875 -5.460938 2.023438 -4.652344 2.277344 -3.996094 C 2.730469 -2.933594 2.882812 -2.628906 3.085938 -2.378906 C 3.339844 -1.972656 3.640625 -1.921875 3.894531 -1.667969 C 4.199219 -1.367188 4.855469 -0.960938 5.359375 -0.707031 C 6.574219 -0.355469 8.191406 -0.707031 8.699219 -0.960938 C 9.914062 -1.566406 10.976562 -1.871094 12.339844 -3.1875 C 12.644531 -3.4375 13.097656 -3.640625 13.453125 -4.148438 L 13.859375 -4.550781 C 14.515625 -5.109375 15.171875 -5.917969 15.980469 -6.222656 C 16.488281 -6.625 16.992188 -6.523438 17.449219 -6.121094 C 17.703125 -5.867188 17.851562 -5.5625 17.902344 -5.210938 C 18.003906 -4.957031 18.15625 -4.753906 18.257812 -4.449219 C 18.664062 -3.640625 19.21875 -3.035156 19.523438 -2.226562 C 19.625 -1.871094 19.875 -1.667969 20.128906 -1.464844 C 21.445312 -0.355469 22.101562 -0.910156 23.667969 -1.214844 C 23.820312 -1.214844 23.921875 -1.367188 24.023438 -1.464844 C 24.679688 -1.820312 25.84375 -2.78125 26.300781 -3.386719 C 26.703125 -3.945312 27.917969 -5.917969 28.375 -6.421875 C 29.285156 -7.890625 29.789062 -9.304688 30.546875 -10.875 C 30.953125 -11.785156 32.269531 -14.210938 32.570312 -15.070312 C 32.722656 -15.578125 32.671875 -15.929688 32.167969 -16.082031 Z M 21.796875 -33.230469 C 22.203125 -34.039062 22.808594 -34.796875 23.820312 -35 C 23.972656 -35.050781 24.125 -35.152344 24.328125 -35.152344 C 24.832031 -35.199219 25.136719 -35 25.238281 -34.492188 L 25.238281 -33.9375 C 24.882812 -32.367188 24.480469 -30.902344 23.214844 -29.738281 C 22.507812 -29.082031 22 -28.375 21.140625 -27.96875 C 20.886719 -27.867188 20.6875 -27.714844 20.433594 -27.816406 C 20.28125 -29.738281 20.6875 -31.507812 21.796875 -33.230469 Z M 9.152344 -8.953125 C 8.800781 -7.941406 8.597656 -6.980469 8.09375 -6.070312 C 7.585938 -5.160156 5.917969 -4.046875 5.160156 -4.5 L 4.148438 -5.007812 C 3.996094 -5.109375 3.894531 -5.210938 3.792969 -5.359375 C 3.640625 -5.5625 3.4375 -5.96875 3.691406 -6.675781 C 3.996094 -7.082031 4.097656 -7.585938 4.347656 -7.941406 C 5.058594 -8.902344 5.96875 -9.609375 7.183594 -9.863281 C 7.332031 -9.914062 8.144531 -9.914062 9.105469 -9.710938 C 9.253906 -9.40625 9.253906 -9.304688 9.152344 -8.953125 Z M 9.152344 -8.953125 "/></g></g></g><g fill="#d9b7ab" fill-opacity="1"><g transform="translate(196.566907, 54.893177)"><g><path d="M 11.582031 0.65625 C 13.453125 0.503906 13.65625 0.605469 15.527344 0.503906 C 17.652344 0.40625 19.675781 -0.0507812 21.648438 -0.808594 C 21.898438 -0.960938 22.152344 -1.0625 22.40625 -1.265625 C 23.011719 -1.871094 22.808594 -1.820312 21.949219 -2.074219 C 21.546875 -2.175781 21.140625 -2.175781 20.734375 -2.175781 C 19.726562 -2.125 18.765625 -2.023438 17.804688 -1.972656 C 17.449219 -1.972656 17.09375 -1.972656 16.742188 -2.074219 C 16.4375 -2.175781 16.285156 -2.328125 16.335938 -2.730469 C 16.4375 -2.984375 16.4375 -3.289062 16.4375 -3.589844 C 16.386719 -4.398438 16.132812 -5.160156 16.539062 -5.917969 C 16.640625 -6.121094 16.539062 -6.421875 16.539062 -6.726562 L 16.539062 -7.738281 C 16.640625 -9.40625 16.691406 -12.085938 16.742188 -13.707031 L 17.042969 -15.375 C 17.09375 -15.578125 17.042969 -15.78125 16.941406 -15.980469 C 16.589844 -16.589844 16.691406 -17.195312 16.84375 -17.851562 C 17.042969 -19.015625 17.347656 -20.179688 17.296875 -21.394531 C 17.246094 -22.757812 17.449219 -26.097656 17.652344 -27.511719 C 17.804688 -28.574219 17.902344 -29.484375 18.257812 -30.195312 C 18.8125 -31.40625 19.472656 -32.46875 21.039062 -32.367188 C 21.140625 -32.367188 21.292969 -32.46875 21.445312 -32.519531 C 22.355469 -32.925781 22.910156 -33.835938 22.65625 -34.644531 C 22.253906 -36.011719 21.039062 -35 19.523438 -34.949219 C 18.5625 -34.949219 17.652344 -34.847656 16.691406 -34.949219 C 15.628906 -35.050781 16.03125 -35.101562 14.921875 -35.199219 C 14.007812 -35.25 13.351562 -35.25 12.542969 -34.695312 C 11.582031 -34.039062 10.570312 -34.089844 9.558594 -34.441406 C 8.800781 -34.746094 8.09375 -34.898438 7.28125 -34.898438 C 6.625 -34.898438 5.96875 -35.050781 5.511719 -34.441406 C 5.460938 -34.339844 5.308594 -34.339844 5.160156 -34.289062 C 4.855469 -34.238281 4.703125 -34.089844 4.5 -33.835938 C 4.097656 -33.328125 3.691406 -32.773438 2.984375 -32.722656 C 2.730469 -32.316406 2.378906 -32.519531 2.023438 -32.269531 C 2.023438 -32.066406 1.921875 -31.8125 2.226562 -31.863281 C 2.984375 -32.015625 3.640625 -31.761719 4.300781 -31.558594 C 4.855469 -31.40625 5.917969 -31.761719 6.523438 -31.609375 C 7.789062 -31.257812 8.546875 -31.308594 9.863281 -31.207031 C 10.214844 -31.15625 10.316406 -30.953125 10.316406 -30.648438 L 10.265625 -30.144531 C 10.015625 -27.613281 9.761719 -26.148438 9.507812 -23.667969 C 9.203125 -21.292969 9.152344 -18.914062 9.253906 -16.539062 C 9.355469 -14.667969 9.558594 -12.796875 9.660156 -10.976562 C 9.8125 -8.445312 9.8125 -5.664062 10.519531 -4.25 C 10.824219 -3.640625 10.621094 -3.339844 9.964844 -3.238281 C 9.054688 -3.085938 8.394531 -3.792969 7.636719 -3.4375 C 6.980469 -3.136719 6.726562 -2.730469 6.878906 -2.023438 C 7.03125 -1.011719 7.585938 -1.214844 8.496094 -0.757812 C 9.203125 -0.457031 9.914062 -0.101562 10.46875 0.40625 C 10.824219 0.65625 11.175781 0.707031 11.582031 0.65625 Z M 11.582031 0.65625 "/></g></g></g><g fill="#d9b7ab" fill-opacity="1"><g transform="translate(218.309749, 54.893177)"><g><path d="M 30.042969 -11.683594 C 29.992188 -11.886719 30.09375 -12.390625 29.992188 -12.695312 C 29.890625 -13 29.839844 -14.210938 29.234375 -14.820312 C 28.222656 -15.425781 27.5625 -17.042969 26.855469 -17.902344 C 25.792969 -19.269531 24.328125 -20.484375 22.707031 -21.242188 C 22.152344 -21.597656 21.695312 -21.597656 21.648438 -22.152344 C 22 -22.40625 23.113281 -24.125 23.113281 -26.097656 C 23.113281 -27.109375 22.304688 -27.511719 22 -28.472656 C 21.796875 -29.183594 20.734375 -29.335938 20.332031 -29.839844 C 19.675781 -30.597656 19.472656 -31.40625 18.714844 -32.167969 C 17.953125 -33.078125 16.890625 -33.230469 15.832031 -33.078125 C 12.1875 -32.621094 12.339844 -31.914062 10.164062 -29.382812 C 10.117188 -29.636719 9.964844 -33.078125 9.558594 -35.050781 C 9.457031 -35.65625 8.648438 -36.3125 8.191406 -36.71875 C 7.789062 -37.074219 7.230469 -37.222656 6.675781 -37.324219 C 6.574219 -37.476562 5.765625 -38.183594 5.613281 -38.234375 C 4.855469 -38.488281 4.550781 -39.246094 3.691406 -38.894531 C 3.339844 -38.640625 3.589844 -37.628906 3.539062 -37.273438 C 3.386719 -35.960938 3.1875 -34.59375 3.238281 -33.328125 C 3.238281 -32.976562 3.386719 -31.207031 3.136719 -30.902344 C 3.136719 -30.246094 2.933594 -29.484375 2.933594 -28.828125 C 2.628906 -26.90625 2.578125 -24.984375 2.425781 -23.113281 C 2.125 -19.117188 1.972656 -14.921875 2.125 -10.976562 C 2.125 -9.914062 1.921875 -9.152344 2.074219 -8.144531 C 2.175781 -7.03125 2.527344 -6.019531 2.628906 -4.957031 C 2.679688 -4.148438 2.933594 -3.289062 3.238281 -2.578125 C 3.4375 -1.921875 4.199219 -1.113281 4.199219 -0.457031 C 4.753906 0.253906 5.511719 1.265625 6.523438 1.113281 C 7.484375 0.304688 6.980469 0.355469 6.980469 -0.707031 C 6.980469 -1.0625 8.042969 -8.800781 8.09375 -9.203125 C 8.191406 -10.117188 8.191406 -10.875 8.394531 -11.683594 C 8.546875 -12.136719 8.445312 -12.59375 8.597656 -13.097656 C 8.699219 -13.605469 9.105469 -14.210938 9.003906 -14.769531 C 8.34375 -17.296875 9.40625 -19.824219 9.660156 -22.507812 C 9.964844 -23.769531 10.519531 -25.035156 10.925781 -26.351562 C 11.429688 -28.273438 12.898438 -30.953125 14.210938 -31.257812 C 15.78125 -32.316406 17.703125 -30.195312 17.09375 -28.523438 C 17.09375 -26.5 16.488281 -26.148438 15.578125 -24.730469 C 14.96875 -23.871094 14.3125 -23.519531 13.554688 -22.859375 C 13.148438 -22.859375 12.441406 -22.050781 12.039062 -21.796875 C 11.378906 -21.496094 9.863281 -20.886719 10.265625 -20.027344 C 10.46875 -19.269531 11.582031 -18.15625 12.238281 -17.753906 C 13.097656 -17.144531 15.019531 -16.992188 16.03125 -17.296875 C 16.640625 -17.5 20.535156 -19.824219 20.382812 -20.433594 C 20.433594 -20.433594 21.445312 -20.28125 21.597656 -20.027344 C 22.707031 -19.269531 23.972656 -18.105469 24.578125 -16.992188 C 25.339844 -15.730469 25.492188 -13.808594 25.238281 -12.390625 C 24.53125 -8.597656 20.988281 -6.574219 20.734375 -6.371094 C 19.824219 -5.714844 17.804688 -4.5 15.070312 -4.5 C 14.414062 -4.5 13.453125 -5.007812 12.949219 -5.308594 C 12.59375 -5.96875 9.304688 -7.6875 10.773438 -5.714844 C 10.773438 -4.90625 14.058594 -2.933594 14.71875 -2.378906 C 15.78125 -1.417969 17.804688 -0.808594 18.914062 -0.707031 C 19.925781 -0.605469 20.6875 -0.960938 21.648438 -1.113281 C 22 -1.164062 25.640625 -3.339844 25.996094 -3.742188 C 26.402344 -4.199219 26.855469 -4.601562 27.363281 -5.007812 C 27.664062 -5.308594 27.96875 -5.5625 28.375 -5.816406 C 28.929688 -6.121094 28.878906 -6.371094 29.789062 -8.953125 C 30.195312 -9.863281 29.6875 -10.925781 30.042969 -11.683594 Z M 30.042969 -11.683594 "/></g></g></g></svg>